<!-- icon666.com - MILLIONS vector ICONS FREE -->
<svg id="Capa_1" enable-background="new 0 0 512.473 512.473" viewBox="0 0 512.473 512.473"
    xmlns="http://www.w3.org/2000/svg">
    <path d=""
        style="fill:none;stroke:#060606;stroke-width:15;stroke-linecap:round;stroke-linejoin:round;stroke-miterlimit:10"></path>


    <g id="left-arm">
        <path
            d="m104.51 309.964c-19.334-12.957-35.051-31.953-45.285-55.091-13.183-29.806-15.859-63.244-7.536-94.153l28.802-24.249.166 32.049c-11.765 43.694 5.843 91.752 39.334 115.451l12 5-27 21"
            fill="#c92f2a"
            stroke="#060606"
            stroke-width="0.5rem"
            stroke-linejoin="round"></path>
    </g>

    <g id="right-arm">
        <path
            d="m406.133 308.066c19.318-12.799 35.013-31.578 45.221-54.461 13.149-29.477 15.789-62.559 7.433-93.151l-24.794-27.483-4.162 35.17c11.811 43.246-5.261 90.663-38.724 114.075l-13.938 7.026 29.017 18.831"
            fill="#c92f2a"
            stroke="#060606"
            stroke-width="0.5rem"
            stroke-linejoin="round"></path>
    </g>

    <g id="right-claw">
        <path
            d="m463.419 158.132-31.398 8.361c-49.165 13.092-100.027-38.7-106.225-61.974l57.881-15.412z"
            fill="#c92f2a"
            stroke="#060606"
            stroke-width="0.5rem"
            stroke-linejoin="round">
            <animateTransform attributeName="transform" type="rotate" from="0 463.419 158.132"
                to="17 463.419 158.132" dur="1s" repeatCount="indefinite" />
        </path>
        <path
            d="m393.183 118.262c8.044 30.207 39.052 48.174 69.259 40.131 30.207-8.044 48.174-39.052 40.131-69.259-16.992-63.811-108.137-87.654-138.345-79.61 0 0 20.912 78.531 28.955 108.738z"
            fill="#ed5651"
            stroke="#060606"
            stroke-width="0.5rem"
            stroke-linejoin="round"></path>
    </g>

    <g id="left-claw">
        <path
            d="m48.566 158.132 31.398 8.361c49.165 13.092 100.027-38.7 106.225-61.974l-57.881-15.412z"
            fill="#c92f2a"
            stroke="#060606"
            stroke-width="0.5rem"
            stroke-linejoin="round"
            style="transform: translate(-0.125rem, -0.5rem);"></path>
        <path
            d="m118.802 118.262c-8.044 30.207-39.052 48.174-69.259 40.131-30.207-8.044-48.174-39.052-40.131-69.259 16.992-63.811 108.137-87.654 138.345-79.61 0 0-20.912 78.531-28.955 108.738z"
            fill="#ed5651"
            stroke="#060606"
            stroke-width="0.5rem">
            <animateTransform attributeName="transform" type="rotate" from="0 118.802 118.262"
                to="10 118.802 118.262" dur="2s" repeatCount="indefinite" />
        </path>
    </g>

    <g id="left-eye">
        <path
            d="m202.011 274.567c-4.142 0-7.5-3.357-7.5-7.5v-49.5c0-4.143 3.358-7.5 7.5-7.5s7.5 3.357 7.5 7.5v49.5c0 4.142-3.358 7.5-7.5 7.5z"
            fill="#ff949b"
            stroke="#060606"
            stroke-width="0.5rem"
            stroke-linejoin="round"></path>
        <circle cx="201.68" cy="192.567" fill="#fff5e6" r="34.31"
            stroke="#060606"
            stroke-width="0.5rem"
            stroke-linejoin="round">
        </circle>
        <path d="m201.68 185.067c-9.652 0-9.668 15 0 15 9.652 0 9.668-15 0-15z"
            fill="#060606">
            <animateTransform attributeName="transform" type="rotate" from="0 201.68 185.067"
                to="360 201.68 192.567" dur="3s" repeatCount="indefinite" />
        </path>
    </g>
    <g id="right-eye">
        <path
            d="m309.011 274.567c-4.142 0-7.5-3.357-7.5-7.5v-49.5c0-4.143 3.358-7.5 7.5-7.5s7.5 3.357 7.5 7.5v49.5c0 4.142-3.358 7.5-7.5 7.5z"
            fill="#ff949b"
            stroke="#060606"
            stroke-width="0.5rem"
            stroke-linejoin="round"></path>
        <circle cx="309.342" cy="192.567" fill="#fff5e6" r="34.31"
            stroke="#060606"
            stroke-width="0.5rem"
            stroke-linejoin="round">
        </circle>
        <path d="m309.342 185.067c-9.652 0-9.668 15 0 15 9.652 0 9.668-15 0-15z"
            fill="#060606">
            <animateTransform attributeName="transform" type="rotate" from="0 309.342 185.067"
                to="-360 309.342 182.567" dur="5s" repeatCount="indefinite" />
        </path>
    </g>

    <g id="legs" style="transform: translateY(21rem);">
        <path
            d="M422.5 8C449.131 -5.628 485.775 -0.0550575 509.557 18.0949C517.249 23.9639 508.147 35.8899 500.458 30.0179C481.242 15.3539 454.923 12.9909 433.404 24.0069L414.93 33.4619C408 43 403 51.5 398.256 62.674C435.556 57.774 473.879 70.9939 500.195 99.5389L506.507 106.386C513.052 113.486 502.061 123.693 495.479 116.554L489.167 109.707C460.438 78.5419 415.312 68.3289 376.053 83.8119C367.355 90.4109 357.357 96.5519 346.073 102.262C388.934 102.29 430.415 120.385 459.542 152.425C466.036 159.567 454.979 169.705 448.443 162.515C418.745 129.847 374.814 113.234 330.933 118.076L264.315 125.426C261.588 125.729 255.861 125.718 253.17 125.426L186.552 118.076C142.671 113.23 98.74 129.847 69.042 162.515C62.507 169.706 51.449 159.567 57.943 152.425C86.317 121.213 126.415 103.241 168.093 102.304C157.536 97.1509 147.974 91.4719 139.467 85.3129C138.99 85.2139 138.515 85.0669 138.049 84.8689C98.195 67.8669 51.686 77.8509 22.318 109.707L16.006 116.555C9.42496 123.695 -1.56604 113.487 4.97796 106.387L11.29 99.5399C38.001 70.5649 77.082 57.3999 114.907 62.9259C106.961 53.6219 100.879 43.6179 96.742 33.0379L79.096 24.0069C57.578 12.9929 31.258 15.3539 12.042 30.0179C4.35096 35.8869 -4.74804 23.9629 2.94196 18.0939C26.725 -0.0550652 57 -5.00003 85.93 10.6539L110 24.0069C138.049 56.5 153.979 79.9919 183.019 92.6969C211.839 105.306 244.845 112.951 276.346 108.789C294.638 106.372 312.533 101.19 329.355 93.6369C369.244 75.7259 370 50.5 404.5 18.5L422.5 8Z"
            fill="#060606" />
    </g>

    <g id="body">
        <path
            d="m330.011 448.567c-25 11-52.437 16-71 16-16.063 0-47-4-79-18-43.554-19.055-82.25-52.123-82.25-101 0-48.877 39.623-88.5 88.5-88.5h138.5c48.877 0 88.5 39.623 88.5 88.5 0 48.877-32.042 80.468-83.25 103z"
            fill="#ed5651"
            stroke="#060606"
            stroke-width="0.5rem"
            stroke-linejoin="round"></path>
    </g>

    <g id="mouth">
        <path
            d="m226.511 333.567c0 4.143 3.358 7.5 7.5 7.5h43c9.674 0 9.674-15 0-15h-43c-4.143 0-7.5 3.357-7.5 7.5z"
            fill="#770000"
            stroke="#060606"
            stroke-width="0.5rem"
            stroke-linejoin="round">
            <animate attributeName="d"
                values="m226.511 333.567c0 4.143 3.358 7.5 7.5 7.5h43c9.674 0 9.674-15 0-15h-43c-4.143 0-7.5 3.357-7.5 7.5z;
                     m226.511 333.567c0 2 3.358 3.5 7.5 3.5h43c9.674 0 9.674-7.5 0-7.5h-43c-4.143 0-7.5 3.357-7.5 3.5z;
                     m226.511 333.567c0 4.143 3.358 7.5 7.5 7.5h43c9.674 0 9.674-15 0-15h-43c-4.143 0-7.5 3.357-7.5 7.5z"
                dur="5s" repeatCount="indefinite" />
        </path>
    </g>


</svg>