<svg width="400" height="400" viewBox="0 0 400 400" fill="none" xmlns="http://www.w3.org/2000/svg">
<g clip-path="url(#clip0_1787_2)">
<rect x="5" y="5" width="390" height="390" rx="75" fill="white" stroke="#D9D9D9" stroke-width="10"/>
<path d="M310.776 243.191L310.08 241.572L311.371 240.372C332.178 221.042 345.522 197.653 346.448 171.27C347.333 146.086 336.919 117.718 310.005 87.0617C307.111 125.361 298.523 148.41 284.928 161.337C270.537 175.021 251.156 176.798 229.156 174.416C218.126 173.222 206.266 170.962 193.846 168.515C192.664 168.282 191.476 168.047 190.283 167.811C178.913 165.564 167.074 163.225 154.836 161.405C128.146 157.437 99.7625 155.98 70.9315 163.38C51.0106 205.125 50.7053 235.624 62.0048 256.729C73.4148 278.039 97.0949 290.594 126.72 295.302L127.883 295.487L128.482 296.502L151.361 335.331L165.949 298.606L166.536 297.128L168.124 297.033C176.029 296.562 184.061 295.678 192.135 294.38L193.383 294.179L194.284 295.065L220.411 320.738L224.169 288.746L224.361 287.111L225.938 286.641C235.467 283.802 244.84 280.425 253.893 276.549L255.434 275.889L256.63 277.064L271.654 291.828L274.482 267.743L274.631 266.473L275.749 265.85C284.357 261.058 292.465 255.772 299.923 250.034L300.89 249.29L302.073 249.595L314.959 252.925L310.776 243.191ZM255.925 93.5555C248.071 76.1723 237.129 66.8529 224.875 63.2696C211.408 59.3318 195.805 62.1562 180.024 69.8784C149.53 84.7996 119.518 117.464 105.487 150.588C130.43 149.493 154.486 153.168 176.659 157.359C182.239 150.555 186.266 142.39 190.058 133.973C190.714 132.519 191.363 131.053 192.014 129.585C195.277 122.223 198.56 114.815 202.687 108.539C207.696 100.921 214.114 94.6875 223.597 91.8778C231.973 89.396 242.427 89.6794 255.925 93.5555Z" fill="#EC7A7A" stroke="#7C4A4A" stroke-width="5"/>
</g>
<defs>
<clipPath id="clip0_1787_2">
<rect width="400" height="400" fill="white"/>
</clipPath>
</defs>
</svg>
