<svg width="400" height="400" viewBox="0 0 400 400" fill="none" xmlns="http://www.w3.org/2000/svg">
<g clip-path="url(#clip0_1785_419)">
<rect x="5" y="5" width="390" height="390" rx="75" fill="white" stroke="#D9D9D9" stroke-width="10"/>
<path d="M313.073 157.796L319.268 143.38L301.447 147.984C293.884 142.165 285.672 136.813 276.965 131.965L273.542 102.812L254.877 121.153C245.734 117.238 236.271 113.828 226.652 110.963L222.299 73.902L192.532 103.152C184.378 101.841 176.262 100.947 168.273 100.471L151.799 59L126.328 102.229C66.2899 111.769 28.0101 153.483 69.1793 238.747C187.907 270.153 298.199 152.113 307.905 319.007C368.175 253.697 355.357 197.081 313.073 157.796ZM177.629 239.912C153.932 244.429 128.257 248.412 101.69 246.703C128.752 316.491 227.719 386.766 260.297 302.464C197.176 323.612 202.916 269.162 177.629 239.912Z" fill="#EC7A7A"/>
</g>
<defs>
<clipPath id="clip0_1785_419">
<rect width="400" height="400" fill="white"/>
</clipPath>
</defs>
</svg>
