<svg width="528" height="500" viewBox="0 0 528 500" fill="none" xmlns="http://www.w3.org/2000/svg">
<path d="M464.129 175.17L475.144 149.609L443.462 157.774C430.017 147.456 415.417 137.966 399.937 129.371L393.853 77.6812L360.671 110.2C344.416 103.259 327.592 97.2134 310.493 92.1323L302.753 26.4219L249.835 78.284C235.338 75.9587 220.91 74.3741 206.707 73.5301L177.42 0L132.138 76.6477C25.4043 93.5619 -42.6488 167.523 30.541 318.699C241.612 374.385 437.687 165.094 454.942 461.006C562.089 345.208 539.301 244.825 464.129 175.17ZM223.341 320.766C181.213 328.776 135.568 335.838 88.3378 332.806C136.447 456.545 312.389 581.145 370.306 431.673C258.091 469.17 268.296 372.628 223.341 320.766Z" fill="#f24822"/>
</svg>
