<svg width="297" height="282" viewBox="0 0 297 282" fill="none" xmlns="http://www.w3.org/2000/svg">
<path d="M258.776 184.191L258.08 182.572L259.371 181.372C280.178 162.042 293.522 138.653 294.448 112.27C295.333 87.086 284.919 58.718 258.005 28.0617C255.111 66.3611 246.523 89.41 232.928 102.337C218.537 116.021 199.156 117.798 177.156 115.416C166.126 114.222 154.266 111.962 141.846 109.515C140.664 109.282 139.476 109.047 138.283 108.811C126.913 106.564 115.074 104.225 102.836 102.405C76.1461 98.4373 47.7625 96.9796 18.9315 104.38C-0.989425 146.125 -1.29475 176.624 10.0048 197.729C21.4148 219.039 45.0949 231.594 74.7199 236.302L75.8834 236.487L76.4815 237.502L99.3607 276.331L113.949 239.606L114.536 238.128L116.124 238.033C124.029 237.562 132.061 236.678 140.135 235.38L141.383 235.179L142.284 236.065L168.411 261.738L172.169 229.746L172.361 228.111L173.938 227.641C183.467 224.802 192.84 221.425 201.893 217.549L203.434 216.889L204.63 218.064L219.654 232.828L222.482 208.743L222.631 207.473L223.749 206.85C232.357 202.058 240.465 196.772 247.923 191.034L248.89 190.29L250.073 190.595L262.959 193.925L258.776 184.191ZM203.925 34.5555C196.071 17.1723 185.129 7.85291 172.875 4.26959C159.408 0.331757 143.805 3.15616 128.024 10.8784C97.5298 25.7996 67.5176 58.4636 53.4867 91.5885C78.4303 90.4929 102.486 94.1682 124.659 98.3589C130.239 91.5545 134.266 83.3898 138.058 74.9732C138.714 73.5186 139.363 72.0528 140.014 70.5852C143.277 63.2232 146.56 55.8155 150.687 49.5391C155.696 41.9209 162.114 35.6875 171.597 32.8778C179.973 30.396 190.427 30.6794 203.925 34.5555Z" fill="#EC7A7A" stroke="#7C4A4A" stroke-width="5"/>
</svg>
