<!-- svg-sprite -->
<svg id="mysprite" xmlns="http://www.w3.org/2000/svg" fill="none" aria-hidden="true" focusable="false">
    <symbol id="draggable" viewBox="0 0 16 17">
        <path d="M10.6667 4.50065C11.403 4.50065 12 3.9037 12 3.16732C12 2.43094 11.403 1.83398 10.6667 1.83398C9.93029 1.83398 9.33333 2.43094 9.33333 3.16732C9.33333 3.9037 9.93029 4.50065 10.6667 4.50065Z" fill="currentColor" />
        <path d="M5.33333 4.50065C6.06971 4.50065 6.66667 3.9037 6.66667 3.16732C6.66667 2.43094 6.06971 1.83398 5.33333 1.83398C4.59695 1.83398 4 2.43094 4 3.16732C4 3.9037 4.59695 4.50065 5.33333 4.50065Z" fill="currentColor" />
        <path d="M10.6667 9.83398C11.403 9.83398 12 9.23703 12 8.50065C12 7.76427 11.403 7.16732 10.6667 7.16732C9.93029 7.16732 9.33333 7.76427 9.33333 8.50065C9.33333 9.23703 9.93029 9.83398 10.6667 9.83398Z" fill="currentColor" />
        <path d="M10.6667 15.1673C11.403 15.1673 12 14.5704 12 13.834C12 13.0976 11.403 12.5007 10.6667 12.5007C9.93029 12.5007 9.33333 13.0976 9.33333 13.834C9.33333 14.5704 9.93029 15.1673 10.6667 15.1673Z" fill="currentColor" />
        <path d="M5.33333 9.83398C6.06971 9.83398 6.66667 9.23703 6.66667 8.50065C6.66667 7.76427 6.06971 7.16732 5.33333 7.16732C4.59695 7.16732 4 7.76427 4 8.50065C4 9.23703 4.59695 9.83398 5.33333 9.83398Z" fill="currentColor" />
        <path d="M5.33333 15.1673C6.06971 15.1673 6.66667 14.5704 6.66667 13.834C6.66667 13.0976 6.06971 12.5007 5.33333 12.5007C4.59695 12.5007 4 13.0976 4 13.834C4 14.5704 4.59695 15.1673 5.33333 15.1673Z" fill="currentColor" />
    </symbol>
    <!-- Иконка перетаскивания объекта -->
    <!-- Иконка галочка в кружочке -->
    <symbol id="successCircle" viewBox="0 0 16 16">
        <path d="M7.99967 1.33398C4.32634 1.33398 1.33301 4.32732 1.33301 8.00065C1.33301 11.674 4.32634 14.6673 7.99967 14.6673C11.673 14.6673 14.6663 11.674 14.6663 8.00065C14.6663 4.32732 11.673 1.33398 7.99967 1.33398ZM11.1863 6.46732L7.40634 10.2473C7.31301 10.3407 7.18634 10.394 7.05301 10.394C6.91967 10.394 6.79301 10.3407 6.69967 10.2473L4.81301 8.36065C4.61967 8.16732 4.61967 7.84732 4.81301 7.65398C5.00634 7.46065 5.32634 7.46065 5.51967 7.65398L7.05301 9.18732L10.4797 5.76065C10.673 5.56732 10.993 5.56732 11.1863 5.76065C11.3797 5.95398 11.3797 6.26732 11.1863 6.46732Z" fill="currentColor" />
    </symbol>
    <!-- Иконка галочка в кружочке -->
    <!-- Иконка кнопка play -->
    <symbol id="play" viewBox="0 0 10 16">
        <path d="M10.8775 6.3423C12.0522 7.13525 12.0522 8.86475 10.8775 9.6577L3.11894 14.8947C1.79063 15.7913 0 14.8396 0 13.237L0 2.76299C0 1.16038 1.79063 0.208676 3.11895 1.10529L10.8775 6.3423Z" fill="currentColor" />
    </symbol>
    <!-- Иконка кнопка play -->
    <!-- Иконка стрелочка влево -->
    <symbol id="arrowLeft" viewBox="0 0 10 15">
        <path d="M0.738281 7.76953C0.738281 7.55859 0.777344 7.36719 0.855469 7.19531C0.933594 7.01953 1.05859 6.84766 1.23047 6.67969L6.89062 1.14258C7.13281 0.896484 7.43359 0.773438 7.79297 0.773438C8.03906 0.773438 8.26172 0.833984 8.46094 0.955078C8.66016 1.07227 8.82031 1.23047 8.94141 1.42969C9.0625 1.62891 9.12305 1.8457 9.12305 2.08008C9.12305 2.44727 8.98047 2.77148 8.69531 3.05273L3.82031 7.75781L8.69531 12.4805C8.98047 12.7656 9.12305 13.0898 9.12305 13.4531C9.12305 13.6953 9.0625 13.916 8.94141 14.1152C8.82031 14.3145 8.66016 14.4727 8.46094 14.5898C8.26172 14.707 8.03906 14.7656 7.79297 14.7656C7.43359 14.7656 7.13281 14.6426 6.89062 14.3965L1.23047 8.85938C1.05469 8.6875 0.927734 8.51367 0.849609 8.33789C0.775391 8.16211 0.738281 7.97266 0.738281 7.76953Z" fill="currentColor" />
    </symbol>
    <!-- Иконка стрелочка влево -->
    <!-- Иконка стрелочка вправо -->
    <symbol id="arrowRight" viewBox="0 0 9 15">
        <path d="M8.76172 7.23047C8.76172 7.44141 8.72266 7.63281 8.64453 7.80469C8.56641 7.98047 8.44141 8.15234 8.26953 8.32031L2.60938 13.8574C2.36719 14.1035 2.06641 14.2266 1.70703 14.2266C1.46094 14.2266 1.23828 14.166 1.03906 14.0449C0.839844 13.9277 0.679688 13.7695 0.558594 13.5703C0.4375 13.3711 0.376954 13.1543 0.376954 12.9199C0.376954 12.5527 0.519532 12.2285 0.804688 11.9473L5.67969 7.24219L0.804689 2.51953C0.519533 2.23437 0.376955 1.91016 0.376955 1.54687C0.376955 1.30469 0.437501 1.08398 0.558595 0.884765C0.679689 0.685546 0.839845 0.527343 1.03906 0.410155C1.23828 0.292968 1.46094 0.234374 1.70703 0.234374C2.06641 0.234374 2.36719 0.357421 2.60938 0.603515L8.26953 6.14062C8.44531 6.3125 8.57227 6.48633 8.65039 6.66211C8.72461 6.83789 8.76172 7.02734 8.76172 7.23047Z" fill="currentColor"/>
    </symbol>
    <!-- Иконка стрелочка вправо -->
    <!-- Иконка громкость включена -->
    <symbol id="volumeOn" viewBox="0 0 16 16">
        <path d="M7.55786 14C7.38284 14 7.21704 13.962 7.06045 13.886C6.90386 13.8145 6.74036 13.7006 6.56995 13.5441L3.68221 10.8894C3.63615 10.8536 3.58319 10.8358 3.52332 10.8358H1.56131C1.0593 10.8358 0.672424 10.7017 0.400691 10.4335C0.133564 10.1654 0 9.76983 0 9.24693V6.75978C0 6.24134 0.133564 5.84804 0.400691 5.57989C0.672424 5.31173 1.0593 5.17765 1.56131 5.17765H3.52332C3.58319 5.17765 3.63615 5.15754 3.68221 5.11732L6.56995 2.49609C6.76338 2.32179 6.93149 2.19665 7.07427 2.12067C7.21704 2.04022 7.37363 2 7.54404 2C7.81117 2 8.02763 2.08715 8.19344 2.26145C8.36385 2.43575 8.44905 2.64804 8.44905 2.89832V13.1352C8.44905 13.381 8.36615 13.5866 8.20035 13.752C8.03454 13.9173 7.82038 14 7.55786 14ZM10.9154 10.9698C10.7496 10.8626 10.6528 10.7196 10.6252 10.5408C10.6022 10.362 10.6552 10.1765 10.7841 9.98436C10.9729 9.7162 11.1203 9.41229 11.2263 9.07263C11.3322 8.72849 11.3851 8.36872 11.3851 7.9933C11.3851 7.61788 11.3322 7.2581 11.2263 6.91397C11.1249 6.56983 10.9775 6.26592 10.7841 6.00223C10.6505 5.81453 10.5976 5.63128 10.6252 5.45251C10.6528 5.26927 10.7496 5.12402 10.9154 5.01676C11.0628 4.9229 11.2216 4.89162 11.3921 4.9229C11.5625 4.95419 11.6983 5.04134 11.7997 5.18436C12.0806 5.54637 12.2994 5.97318 12.456 6.4648C12.6125 6.95196 12.6908 7.46145 12.6908 7.9933C12.6908 8.52514 12.6125 9.03464 12.456 9.52179C12.2994 10.0089 12.0806 10.4335 11.7997 10.7955C11.6983 10.943 11.5625 11.0324 11.3921 11.0637C11.2216 11.0905 11.0628 11.0592 10.9154 10.9698ZM13.6718 12.7598C13.5106 12.6615 13.4185 12.5251 13.3955 12.3508C13.3725 12.1721 13.4208 11.9955 13.5406 11.8212C13.9044 11.2939 14.1877 10.7017 14.3903 10.0447C14.593 9.38771 14.6943 8.70391 14.6943 7.9933C14.6943 7.28268 14.593 6.59888 14.3903 5.9419C14.1923 5.28045 13.909 4.68827 13.5406 4.16536C13.4162 3.99106 13.3656 3.81676 13.3886 3.64246C13.4162 3.46369 13.5106 3.32514 13.6718 3.22682C13.8284 3.12849 13.9919 3.09721 14.1623 3.13296C14.3374 3.16425 14.4778 3.25587 14.5838 3.40782C15.0351 4.02011 15.3828 4.72626 15.6269 5.52626C15.8756 6.32179 16 7.14413 16 7.9933C16 8.84246 15.8756 9.6648 15.6269 10.4603C15.3782 11.2514 15.0305 11.9575 14.5838 12.5788C14.4778 12.7307 14.3374 12.8223 14.1623 12.8536C13.9919 12.8849 13.8284 12.8536 13.6718 12.7598Z" fill="currentColor" />
    </symbol>
    <!-- Иконка громкость включена -->
    <!-- Иконка замочек в кружочке -->
    <symbol id="lockedCircle" viewBox="0 0 16 16">
        <path d="M8 5.16602C6.74 5.16602 6.5 5.69268 6.5 6.66602V7.07935H9.5V6.66602C9.5 5.69268 9.26 5.16602 8 5.16602Z" fill="currentColor" />
        <path d="M7.99994 10.0663C8.40494 10.0663 8.73327 9.73795 8.73327 9.33294C8.73327 8.92793 8.40494 8.59961 7.99994 8.59961C7.59493 8.59961 7.2666 8.92793 7.2666 9.33294C7.2666 9.73795 7.59493 10.0663 7.99994 10.0663Z" fill="currentColor" />
        <path d="M7.99967 1.33398C4.31967 1.33398 1.33301 4.32065 1.33301 8.00065C1.33301 11.6807 4.31967 14.6673 7.99967 14.6673C11.6797 14.6673 14.6663 11.6807 14.6663 8.00065C14.6663 4.32065 11.6797 1.33398 7.99967 1.33398ZM11.5863 9.66732C11.5863 11.134 11.133 11.5873 9.66634 11.5873H6.33301C4.86634 11.5873 4.41301 11.134 4.41301 9.66732V9.00065C4.41301 7.86065 4.68634 7.33398 5.49967 7.15398V6.66732C5.49967 6.04732 5.49967 4.16732 7.99967 4.16732C10.4997 4.16732 10.4997 6.04732 10.4997 6.66732V7.15398C11.313 7.33398 11.5863 7.86065 11.5863 9.00065V9.66732Z" fill="currentColor" />
    </symbol>
    <!-- Иконка замочек в кружочке -->
    <!-- Иконка крестика -->
    <symbol id="cross" viewBox="0 0 14 14">
        <path d="M1.04102 12.7344C0.884766 12.5742 0.779297 12.3867 0.724609 12.1719C0.673828 11.957 0.673828 11.7422 0.724609 11.5273C0.779297 11.3164 0.880859 11.1367 1.0293 10.9883L5.23633 6.77539L1.0293 2.56836C0.880859 2.42383 0.78125 2.24609 0.730469 2.03516C0.679688 1.82031 0.679688 1.60547 0.730469 1.39062C0.78125 1.17578 0.884766 0.988281 1.04102 0.828125C1.20117 0.667969 1.38867 0.5625 1.60352 0.511719C1.82227 0.460938 2.03711 0.460938 2.24805 0.511719C2.45898 0.5625 2.64062 0.662109 2.79297 0.810547L7 5.01758L11.2012 0.816406C11.3574 0.660156 11.541 0.556641 11.752 0.505859C11.9629 0.455078 12.1738 0.457031 12.3848 0.511719C12.5996 0.566406 12.7852 0.673828 12.9414 0.833984C13.1055 0.990234 13.2129 1.17578 13.2637 1.39062C13.3184 1.60156 13.3203 1.81445 13.2695 2.0293C13.2188 2.24414 13.1152 2.42773 12.959 2.58008L8.76367 6.77539L12.959 10.9824C13.1152 11.1348 13.2188 11.3164 13.2695 11.5273C13.3203 11.7422 13.3184 11.9551 13.2637 12.166C13.2129 12.3809 13.1055 12.5684 12.9414 12.7285C12.7852 12.8887 12.5996 12.9961 12.3848 13.0508C12.1738 13.1055 11.9629 13.1074 11.752 13.0566C11.541 13.0059 11.3574 12.9023 11.2012 12.7461L7 8.54492L2.79297 12.752C2.64062 12.8965 2.45898 12.9941 2.24805 13.0449C2.03711 13.0996 1.82422 13.0996 1.60938 13.0449C1.39453 12.9941 1.20508 12.8906 1.04102 12.7344Z" fill="currentColor" />
    </symbol>
    <!-- Иконка крестика -->
    <!-- Иконка плюсик в квадрате -->
    <symbol id="plusSquare" viewBox="0 0 15 15">
        <path d="M10.294 0.862549H4.70732C2.28065 0.862549 0.833984 2.30922 0.833984 4.73588V10.3159C0.833984 12.7492 2.28065 14.1959 4.70732 14.1959H10.2873C12.714 14.1959 14.1607 12.7492 14.1607 10.3225V4.73588C14.1673 2.30922 12.7207 0.862549 10.294 0.862549ZM10.1673 8.02922H8.00065V10.1959C8.00065 10.4692 7.77398 10.6959 7.50065 10.6959C7.22732 10.6959 7.00065 10.4692 7.00065 10.1959V8.02922H4.83398C4.56065 8.02922 4.33398 7.80255 4.33398 7.52922C4.33398 7.25588 4.56065 7.02922 4.83398 7.02922H7.00065V4.86255C7.00065 4.58922 7.22732 4.36255 7.50065 4.36255C7.77398 4.36255 8.00065 4.58922 8.00065 4.86255V7.02922H10.1673C10.4407 7.02922 10.6673 7.25588 10.6673 7.52922C10.6673 7.80255 10.4407 8.02922 10.1673 8.02922Z" fill="currentColor"/>
    </symbol>
    <!-- Иконка плюсик в квадрате -->
    <!-- Иконка три точки (вертикально) -->
    <symbol id="kebabMenu" viewBox="0 0 24 24">
        <circle cx="12" cy="4" r="2" fill="currentColor"></circle>
        <circle cx="12" cy="12" r="2" fill="currentColor"></circle>
        <circle cx="12" cy="20" r="2" fill="currentColor"></circle>
    </symbol>
    <!-- Иконка три точки (вертикально) -->
    <!-- Иконка фотоаппарата -->
    <symbol id="photo" viewBox="0 0 24 24">
        <path fill-rule="evenodd" clip-rule="evenodd" d="M8.25003 13C8.25003 10.9289 9.92897 9.25 12 9.25C14.0711 9.25 15.75 10.9289 15.75 13C15.75 15.0711 14.0711 16.75 12 16.75C9.92897 16.75 8.25003 15.0711 8.25003 13ZM12 10.75C10.7574 10.75 9.75003 11.7574 9.75003 13C9.75003 14.2426 10.7574 15.25 12 15.25C13.2427 15.25 14.25 14.2426 14.25 13C14.25 11.7574 13.2427 10.75 12 10.75Z" fill="currentColor" />
        <path fill-rule="evenodd" clip-rule="evenodd" d="M10.6162 5.75C9.571 5.75 8.72372 6.59728 8.72372 7.64245C8.72372 8.30841 8.2125 8.86283 7.54872 8.91674L5.31912 9.09782C4.88135 9.13337 4.52132 9.45709 4.43961 9.88864C3.99087 12.2586 3.95741 14.6886 4.34072 17.0701L4.43797 17.6743C4.52982 18.2449 4.99945 18.679 5.57551 18.7258L7.51783 18.8835C10.5011 19.1258 13.499 19.1258 16.4822 18.8835L18.4246 18.7258C19.0006 18.679 19.4703 18.2449 19.5621 17.6743L19.6593 17.0701C20.0427 14.6886 20.0092 12.2586 19.5605 9.88864C19.4787 9.45709 19.1187 9.13337 18.681 9.09782L16.4514 8.91674C15.7876 8.86284 15.2764 8.30841 15.2764 7.64245C15.2764 6.59728 14.4291 5.75 13.3839 5.75H10.6162ZM7.2298 7.4377C7.33565 5.65944 8.81132 4.25 10.6162 4.25H13.3839C15.1888 4.25 16.6644 5.65944 16.7703 7.4377L18.8024 7.60274C19.9133 7.69296 20.8269 8.51446 21.0343 9.60958C21.5153 12.1503 21.5512 14.7554 21.1403 17.3084L21.043 17.9126C20.8414 19.1652 19.8105 20.1182 18.546 20.2209L16.6037 20.3786C13.5396 20.6274 10.4605 20.6274 7.39641 20.3786L5.45409 20.2209C4.18956 20.1182 3.15865 19.1652 2.95703 17.9126L2.85978 17.3084C2.44885 14.7554 2.48472 12.1503 2.9658 9.60958C3.17315 8.51446 4.08678 7.69296 5.1977 7.60274L7.2298 7.4377Z" fill="currentColor" />
    </symbol>
    <!-- Иконка фотоаппарата -->
    <!-- Иконка копирования -->
    <symbol id="copy" viewBox="0 0 16 16">
        <path d="M10.6663 8.60016V11.4002C10.6663 13.7335 9.73301 14.6668 7.39967 14.6668H4.59967C2.26634 14.6668 1.33301 13.7335 1.33301 11.4002V8.60016C1.33301 6.26683 2.26634 5.3335 4.59967 5.3335H7.39967M10.6663 8.60016C10.6663 6.26683 9.73301 5.3335 7.39967 5.3335M10.6663 8.60016V10.6668H11.3997C13.733 10.6668 14.6663 9.7335 14.6663 7.40016V4.60016C14.6663 2.26683 13.733 1.3335 11.3997 1.3335H8.59967C6.26634 1.3335 5.33301 2.26683 5.33301 4.60016V5.3335L7.39967 5.3335" stroke="currentColor" stroke-width="1.5" stroke-linecap="round" stroke-linejoin="round"/>
    </symbol>
    <!-- Иконка копирования -->
    <!-- Иконка ссылки -->
    <symbol id="link" viewBox="0 0 14 14">
        <path d="M9.79301 0.333496H4.20634C1.77967 0.333496 0.333008 1.78016 0.333008 4.20683V9.78683C0.333008 12.2202 1.77967 13.6668 4.20634 13.6668H9.78634C12.213 13.6668 13.6597 12.2202 13.6597 9.7935V4.20683C13.6663 1.78016 12.2197 0.333496 9.79301 0.333496ZM10.4997 7.22016C10.4997 7.4935 10.273 7.72016 9.99967 7.72016C9.72634 7.72016 9.49967 7.4935 9.49967 7.22016V5.20683L4.35301 10.3535C4.25301 10.4535 4.12634 10.5002 3.99967 10.5002C3.87301 10.5002 3.74634 10.4535 3.64634 10.3535C3.45301 10.1602 3.45301 9.84016 3.64634 9.64683L8.79301 4.50016H6.77967C6.50634 4.50016 6.27967 4.2735 6.27967 4.00016C6.27967 3.72683 6.50634 3.50016 6.77967 3.50016H9.99967C10.273 3.50016 10.4997 3.72683 10.4997 4.00016V7.22016Z" fill="currentColor"/>
    </symbol>
    <!-- Иконка ссылки -->
    <!-- Иконка редактирования -->
    <symbol id="pencil" viewBox="0 0 14 14">
        <path d="M12.3333 4.49312L3.82667 12.9998H1V10.1731L9.50667 1.66645C9.88167 1.29192 10.39 1.08154 10.92 1.08154C11.45 1.08154 11.9583 1.29192 12.3333 1.66645V1.66645C12.7079 2.04145 12.9182 2.54978 12.9182 3.07978C12.9182 3.60978 12.7079 4.11811 12.3333 4.49312Z" stroke="white" stroke-width="2" stroke-linecap="round" stroke-linejoin="round"/>
    </symbol>
    <!-- Иконка редактирования -->
    <!-- Иконка Телеграм в кружочке -->
    <symbol id="telegramCircle" viewBox="0 0 16 16">
        <path fill-rule="evenodd" clip-rule="evenodd" d="M2.34375 2.34313C3.8425 0.843375 5.87875 0 8 0C10.1213 0 12.1575 0.843375 13.6562 2.34313C15.1562 3.84288 16 5.87913 16 8C16 10.1209 15.1562 12.1571 13.6562 13.6569C12.1575 15.1566 10.1213 16 8 16C5.87875 16 3.8425 15.1566 2.34375 13.6569C0.84375 12.1571 0 10.1209 0 8C0 5.87913 0.84375 3.84288 2.34375 2.34313ZM8.28656 5.90573C7.50906 6.22935 5.95409 6.89923 3.62159 7.91523C3.24284 8.06585 3.04405 8.21323 3.02655 8.35723C2.99578 8.60048 3.30043 8.69643 3.71439 8.82679C3.77117 8.84467 3.83001 8.8632 3.89032 8.88285C4.29907 9.0156 4.84904 9.17098 5.13404 9.1771C5.39404 9.18273 5.68278 9.07585 6.00153 8.8566C8.18153 7.38573 9.30528 6.64223 9.37653 6.62623C9.42653 6.61498 9.49532 6.60073 9.54157 6.64235C9.58907 6.68385 9.58404 6.7626 9.57904 6.78373C9.54956 6.91221 8.35734 8.02067 7.73696 8.59747C7.54193 8.7788 7.40341 8.90758 7.37531 8.93685C7.31252 9.00208 7.24851 9.06379 7.187 9.12309C6.80765 9.48876 6.52306 9.7631 7.20282 10.211C7.53243 10.4281 7.79551 10.6073 8.05844 10.7864C8.34095 10.9788 8.62329 11.1711 8.9878 11.4102C9.08152 11.4716 9.17101 11.5354 9.25817 11.5976C9.58951 11.8338 9.88716 12.046 10.2553 12.0121C10.4691 11.9925 10.6903 11.7915 10.8016 11.192C11.0666 9.7751 11.5878 6.70535 11.7078 5.44035C11.7191 5.3296 11.7053 5.18773 11.6953 5.12548C11.6841 5.06323 11.6615 4.97448 11.5815 4.90885C11.4853 4.83098 11.3378 4.8146 11.2715 4.81573C10.9703 4.8211 10.5091 4.9816 8.28656 5.90573Z" fill="currentColor"/>
    </symbol>
    <!-- Иконка Телеграм в кружочке -->
    <!-- Иконка таймера -->
    <symbol id="timer" viewBox="0 0 12 13">
        <path d="M6 12.5C9.28235 12.5 12 9.77647 12 6.5C12 3.21765 9.28824 0.5 6.00588 0.5C5.69412 0.5 5.54118 0.688235 5.54118 0.994118V3.27059C5.54118 3.52941 5.71765 3.72941 5.97059 3.72941C6.22941 3.72941 6.40588 3.52941 6.40588 3.27059V1.51765C8.99412 1.72353 10.9941 3.85882 10.9941 6.5C10.9941 9.27647 8.77647 11.5 6 11.5C3.22353 11.5 0.994118 9.27647 1 6.5C1.00588 5.25882 1.44706 4.13529 2.18824 3.27059C2.36471 3.04118 2.37647 2.76471 2.18235 2.55882C1.98824 2.35294 1.66471 2.37059 1.44706 2.62941C0.552941 3.67647 0 5.03529 0 6.5C0 9.77647 2.72353 12.5 6 12.5Z" fill="currentColor" />
        <path d="M6.75279 5.81721C7.31161 6.20544 7.40573 6.85838 6.94102 7.34662C6.46455 7.80544 5.81161 7.70544 5.41749 7.14662L3.24691 4.03485C3.04102 3.74662 3.34691 3.43485 3.64102 3.64074L6.75279 5.81721Z" fill="currentColor" />
    </symbol>
    <!-- Иконка таймера -->
    <!-- Иконка удаления поля -->
    <symbol id="removeInput" viewBox="0 0 16 17">
        <path d="M8 16.5C7.12004 16.5 6.28025 16.3642 5.48063 16.0925C4.68484 15.8209 3.95218 15.4402 3.28264 14.9505C2.61693 14.4608 2.0373 13.8812 1.54376 13.2116C1.05404 12.5459 0.673362 11.8152 0.401722 11.0194C0.133907 10.2198 0 9.37996 0 8.5C0 7.62004 0.133907 6.78216 0.401722 5.98637C0.673362 5.18675 1.05404 4.45409 1.54376 3.78838C2.0373 3.11884 2.61693 2.53922 3.28264 2.0495C3.94835 1.55595 4.68101 1.17527 5.48063 0.907461C6.28025 0.63582 7.11813 0.5 7.99426 0.5C8.87422 0.5 9.71401 0.63582 10.5136 0.907461C11.3132 1.17527 12.0459 1.55595 12.7116 2.0495C13.3773 2.53922 13.955 3.11884 14.4448 3.78838C14.9383 4.45409 15.3209 5.18675 15.5925 5.98637C15.8642 6.78216 16 7.62004 16 8.5C16 9.37996 15.8642 10.2198 15.5925 11.0194C15.3209 11.8152 14.9402 12.5459 14.4505 13.2116C13.9608 13.8812 13.3812 14.4608 12.7116 14.9505C12.0459 15.4402 11.3132 15.8209 10.5136 16.0925C9.71784 16.3642 8.87996 16.5 8 16.5ZM5.37159 9.54448H10.6284C10.9268 9.54448 11.1717 9.44883 11.363 9.25753C11.5581 9.06241 11.6557 8.81373 11.6557 8.51148C11.6557 8.20923 11.5581 7.96055 11.363 7.76542C11.1717 7.5703 10.9268 7.47274 10.6284 7.47274H5.37159C5.07317 7.47274 4.8264 7.5703 4.63128 7.76542C4.43998 7.96055 4.34433 8.20923 4.34433 8.51148C4.34433 8.81373 4.44189 9.06241 4.63702 9.25753C4.83214 9.44883 5.077 9.54448 5.37159 9.54448Z" fill="currentColor"></path>
    </symbol>
    <!-- Иконка удаления поля -->
    <!-- Иконка паузы -->
    <symbol id="pause" viewBox="0 0 16 16">
        <path fill-rule="evenodd" clip-rule="evenodd" d="M4 16C2.896 16 2 15.104 2 14V2C2 0.896 2.896 0 4 0C5.104 0 6 0.896 6 2V14C6 15.104 5.104 16 4 16ZM14 14V2C14 0.896 13.104 0 12 0C10.896 0 10 0.896 10 2V14C10 15.104 10.896 16 12 16C13.104 16 14 15.104 14 14Z" fill="currentColor" />
    </symbol>
    <!-- Иконка паузы -->
    <!-- Иконка предупреждения -->
    <symbol id="notice" viewBox="0 0 14 14">
        <path d="M6.9987 0.333336C3.32536 0.333336 0.332031 3.32667 0.332031 7C0.332031 10.6733 3.32536 13.6667 6.9987 13.6667C10.672 13.6667 13.6654 10.6733 13.6654 7C13.6654 3.32667 10.672 0.333336 6.9987 0.333336ZM6.4987 4.33334C6.4987 4.06 6.72536 3.83334 6.9987 3.83334C7.27203 3.83334 7.4987 4.06 7.4987 4.33334V7.66667C7.4987 7.94 7.27203 8.16667 6.9987 8.16667C6.72536 8.16667 6.4987 7.94 6.4987 7.66667V4.33334ZM7.61203 9.92C7.5787 10.0067 7.53203 10.0733 7.47203 10.14C7.40536 10.2 7.33203 10.2467 7.25203 10.28C7.17203 10.3133 7.08536 10.3333 6.9987 10.3333C6.91203 10.3333 6.82536 10.3133 6.74536 10.28C6.66536 10.2467 6.59203 10.2 6.52536 10.14C6.46536 10.0733 6.4187 10.0067 6.38536 9.92C6.35203 9.84 6.33203 9.75333 6.33203 9.66667C6.33203 9.58 6.35203 9.49334 6.38536 9.41333C6.4187 9.33333 6.46536 9.26 6.52536 9.19334C6.59203 9.13334 6.66536 9.08667 6.74536 9.05334C6.90536 8.98667 7.09203 8.98667 7.25203 9.05334C7.33203 9.08667 7.40536 9.13334 7.47203 9.19334C7.53203 9.26 7.5787 9.33333 7.61203 9.41333C7.64536 9.49334 7.66536 9.58 7.66536 9.66667C7.66536 9.75333 7.64536 9.84 7.61203 9.92Z" fill="currentColor"/>
    </symbol>
    <!-- Иконка предупреждения -->
    <!-- nera logo -->
    <symbol id="logo" viewBox="0 0 86 91">
        <path d="M83.9702 25.8154C79.2757 21.5358 63.1903 18.9819 48.4166 20.0173L45.517 15.5306C45.2409 15.1165 44.8267 14.9094 44.3434 14.9094C43.8602 14.9094 43.4459 15.1165 43.1698 15.5306L39.5109 21.1217C29.5006 22.7093 20.733 25.4012 13.3462 29.1286C9.82531 27.472 6.71868 25.4703 4.57856 23.3995C2.16229 21.0527 0.919636 18.7058 1.12674 16.566C1.47193 12.4245 6.51157 8.55911 15.2792 5.66006C23.4945 2.89905 33.988 1.31148 44.2053 1.24245C44.5505 1.24245 44.8267 0.966351 44.8267 0.621226C44.8267 0.2761 44.5505 0 44.2053 0C33.8499 0.0690251 23.1493 1.6566 14.865 4.48663C10.5847 5.93616 7.06386 7.59276 4.57856 9.52546C1.74807 11.6652 0.229274 14.0121 0.0221651 16.428C-0.184944 18.9819 1.05771 21.6049 3.81916 24.2968C5.89024 26.2986 8.72073 28.1622 11.9654 29.8188C5.82121 32.8559 2.50747 36.7904 2.50747 41.208C2.50747 46.1778 8.37555 51.4237 14.2436 54.5298C11.2751 55.9794 8.99687 57.774 7.54711 59.9138C5.75217 62.5367 5.40699 65.3668 6.51157 68.1968C8.8588 74.202 17.6264 77.4462 21.6995 78.6886C20.733 79.5859 20.3878 80.5523 20.5259 81.6567C21.0782 84.9699 27.2224 87.5238 30.7433 88.4902C34.4022 89.5256 37.2327 90.0778 44.1363 90.768H44.2053C44.5505 90.768 44.8267 90.5609 44.8267 90.2158C44.8267 89.8707 44.6196 89.5946 44.2744 89.5256C37.4398 88.8353 34.6783 88.2831 31.0885 87.3167C26.8082 86.1433 22.1138 83.6584 21.6995 81.4496C21.5615 80.6903 22.0447 79.862 23.0803 79.1028C31.4336 81.5877 38.3373 82.6921 45.448 82.8301C53.8704 82.9682 64.1568 81.9328 66.7112 79.3789C67.1944 78.8957 67.4015 78.4125 67.4015 77.8603C67.4015 77.2391 67.1254 76.6869 66.5731 76.1347C63.3284 73.0286 50.4876 72.4073 45.1719 72.6834C37.7159 72.9595 29.8458 73.6498 22.8732 77.7913C21.0092 77.3081 17.7645 76.2037 14.5888 74.4781C12.4487 73.3047 10.7918 72.0622 9.6182 70.7507C9.75627 70.7507 9.82531 70.8197 9.96338 70.8197H78.6544C79.1377 70.8197 79.6209 70.5436 79.8971 70.0605C80.1732 69.5773 80.1042 69.0941 79.828 68.6109L73.6838 59.0165C74.9265 58.4643 76.031 57.843 76.7904 57.1528C77.6189 56.3245 78.0331 55.4272 78.0331 54.4608C78.0331 51.4237 74.2361 49.2839 66.6421 48.1105L59.8766 37.6877C63.8807 37.5497 67.6086 37.2045 70.9224 36.5833C76.8595 35.5479 81.4159 33.7533 83.7631 31.6135C84.8677 30.6471 85.42 29.5427 85.42 28.5074C85.3509 27.541 84.8677 26.6437 83.9702 25.8154ZM45.379 73.8569C52.1445 73.5808 63.3284 74.5471 65.8827 76.963C66.1589 77.2391 66.2969 77.5152 66.2969 77.7913C66.2969 77.9984 66.1589 78.2054 65.9518 78.4125C64.0187 80.3452 55.2511 81.6567 45.5861 81.5186C38.8896 81.3806 32.4002 80.3452 24.6681 78.2054C31.1575 74.7542 38.1302 74.133 45.379 73.8569ZM44.3434 18.5678L55.9415 36.5143C52.6278 36.5143 48.9688 36.3762 45.0338 36.0311C41.3058 35.755 37.5779 35.2718 33.988 34.6506L44.3434 18.5678ZM31.0885 34.1674C24.9442 32.994 19.2833 31.4754 14.865 29.7498C21.6305 26.4366 29.6387 24.0207 38.6134 22.5022L31.0885 34.1674ZM3.81916 41.208C3.81916 36.1001 8.99687 32.5798 13.4152 30.5091C17.9025 32.3728 23.8397 34.0984 30.3981 35.3409L19.2833 52.4591C18.1097 52.8732 16.867 53.3564 15.7624 53.8396C9.75627 50.9405 3.81916 45.6946 3.81916 41.208ZM18.1787 54.2537L17.8335 54.8059C17.6954 54.7369 17.4883 54.6679 17.3503 54.5989C17.6264 54.4608 17.9025 54.3228 18.1787 54.2537ZM8.8588 68.6109C8.72073 68.887 8.65169 69.1631 8.65169 69.4392C8.30651 68.887 7.96133 68.3348 7.75422 67.7136C6.78772 65.2287 7.06386 62.8819 8.65169 60.604C10.1015 58.4643 12.5177 56.6696 15.7624 55.2201C16.2457 55.4272 16.6599 55.6342 17.1431 55.8413L8.8588 68.6109ZM76.3072 68.1278H12.3796L19.6285 56.8767C25.9107 59.3616 34.5403 61.9845 45.3099 62.3297C51.6613 62.5367 58.4958 62.1916 63.9497 61.4323C66.1589 61.0872 68.7132 60.604 71.0604 59.9828L76.3072 68.1278ZM76.7214 54.5298C76.7214 55.1511 76.4453 55.7033 75.8239 56.3245C75.1336 56.9457 74.1671 57.5669 72.9244 58.0501L67.4706 49.629C73.4767 50.6644 76.7214 52.39 76.7214 54.5298ZM70.301 58.8784C63.9497 60.6731 53.8704 61.4323 45.3099 61.0872C34.8164 60.7421 26.463 58.1882 20.2498 55.7723L33.1595 35.824C36.9565 36.4453 40.8916 36.9975 44.8957 37.2736C49.0379 37.6187 52.9729 37.7567 56.7009 37.7567L70.301 58.8784ZM82.8656 30.7162C79.8971 33.4081 72.165 36.1001 59.0481 36.5143L49.176 21.1907C63.2593 20.2934 78.7925 22.7093 83.0727 26.6437C83.7631 27.2649 84.0392 27.8861 84.0392 28.4383C84.1083 29.1976 83.6941 29.9569 82.8656 30.7162Z" fill="currentColor"/>
    </symbol>
    <!-- nera logo -->
    <!-- Иконка свайпа -->
    <symbol id="swipe" viewBox="0 0 18 17">
        <path d="M12.491 0.136719H5.50768C2.47435 0.136719 0.666016 1.94505 0.666016 4.97839V11.9534C0.666016 14.9951 2.47435 16.8034 5.50768 16.8034H12.4827C15.516 16.8034 17.3243 14.9951 17.3243 11.9617V4.97839C17.3327 1.94505 15.5243 0.136719 12.491 0.136719ZM7.44102 10.5534C7.68268 10.7951 7.68268 11.1951 7.44102 11.4367C7.31602 11.5617 7.15768 11.6201 6.99935 11.6201C6.84102 11.6201 6.68268 11.5617 6.55768 11.4367L4.48268 9.36172C3.99102 8.87005 3.99102 8.07839 4.48268 7.58672L6.55768 5.51172C6.79935 5.27005 7.19935 5.27005 7.44102 5.51172C7.68268 5.75339 7.68268 6.15339 7.44102 6.39505L5.36602 8.47005L7.44102 10.5534ZM13.516 9.35339L11.441 11.4284C11.316 11.5534 11.1577 11.6117 10.9993 11.6117C10.841 11.6117 10.6827 11.5534 10.5577 11.4284C10.316 11.1867 10.316 10.7867 10.5577 10.5451L12.6327 8.47005L10.5577 6.38672C10.316 6.14505 10.316 5.74505 10.5577 5.50339C10.7993 5.26172 11.1993 5.26172 11.441 5.50339L13.516 7.57839C14.0077 8.07005 14.0077 8.87005 13.516 9.35339Z" fill="currentColor"/>
    </symbol>
    <!-- Иконка свайпа -->
    <!-- Иконка сферы для карты -->
    <symbol id="mapSphere" viewBox="0 0 12 12">
        <circle cx="6" cy="6" r="6" fill="currentColor"/>
    </symbol>
    <!-- Иконка сферы для карты -->
    <!-- Иконка спирали для изменения размера 0 -->
    <symbol id="mapSpiral0" viewBox="0 0 102 62">
        <path d="M101 31C101 31 99.4043 16.2905 94.0223 16.8182C92.7911 16.939 91.8756 17.9488 91.2331 19.4572M71.1184 16.9819C75.9704 25.8814 77.3016 41.6067 73.6054 41.9692C69.5335 42.3685 68.003 25.0527 71.1184 16.9819ZM71.1184 16.9819C67.7964 10.8887 61.1747 8.63854 57.0578 15.7538M71.1184 16.9819C73.6037 10.5431 79.248 13.5607 81.691 18.5812M57.0578 15.7538C51.2802 25.7389 52.5627 47.906 58.821 47.2921C64.3922 46.7456 63.5401 26.9645 57.0578 15.7538ZM57.0578 15.7538C52.9841 8.7086 43.6543 4.6152 39.8443 14.4817M18.2659 12.5977C28.2142 29.7961 29.5218 60.1425 20.9719 60.9808C11.3674 61.9226 9.39928 27.916 18.2659 12.5977ZM18.2659 12.5977C14.0392 5.2906 8.25282 0.356901 1 1.06803M18.2659 12.5977C24.3607 2.06816 34.5726 4.81596 39.8443 14.4817M39.8443 14.4817C35.0632 26.8632 37.4121 53.4276 43.6611 52.8149C49.3337 52.2588 47.2906 28.1345 39.8443 14.4817ZM91.2331 19.4572C88.9473 15.366 84.2458 14.3479 81.691 18.5812M91.2331 19.4572C94.6575 25.5864 95.6148 36.6429 93.0365 36.8957C90.1848 37.1754 88.8813 24.9776 91.2331 19.4572ZM81.691 18.5812C85.5749 26.563 86.6142 40.2055 82.807 40.579C78.4397 41.0074 77.5746 25.4019 81.691 18.5812Z" stroke="currentColor" stroke-miterlimit="10" stroke-linecap="round" stroke-linejoin="round"/>
    </symbol>
    <!-- Иконка спирали для изменения размера 0 -->
    <!-- Иконка спирали для изменения размера 1 -->
    <symbol id="mapSpiral1" viewBox="0 0 102 62">
        <path d="M1 31C1.89406 23.8327 3.83458 15.9208 6.27485 10.5768C8.90293 4.8215 12.1106 1 15.2151 1C18.3163 1 21.5207 4.81373 24.1472 10.5592M33.0794 1C29.9782 1 26.7738 4.81373 24.1472 10.5592M33.0954 1C36.1969 1 39.4102 4.83051 42.0369 10.5768M24.1472 10.5592C26.5913 15.9054 28.5351 22.9242 29.4301 30.0993C31.4951 46.8067 28.7578 61 24.1475 61C19.5372 61 16.7993 46.8067 18.8644 30.0993C19.7594 22.9242 21.7032 15.9054 24.1472 10.5592ZM42.0369 10.5768C44.6636 16.3231 46.4155 22.9248 47.3105 30.0993C49.3754 46.8057 46.6385 60.9992 42.0286 61C37.4184 61 34.681 46.8067 36.762 30.0993C37.6561 22.932 39.4088 16.3321 42.0369 10.5768ZM42.0369 10.5768C44.665 4.8215 47.8727 1 50.9771 1C54.0783 1 57.2827 4.81373 59.9093 10.5592M68.8414 1C65.7402 1 62.5359 4.81373 59.9093 10.5592M77.7907 61C82.4006 60.9992 85.1374 46.8057 83.0725 30.0993C82.1776 22.9248 80.2885 15.9228 77.8447 10.5768M68.8575 1C71.959 1 75.218 4.83051 77.8447 10.5768M59.9093 10.5592C62.3533 15.9054 64.2971 22.9242 65.1921 30.0993C67.2572 46.8067 64.5198 61 59.9095 61C55.2992 61 52.5614 46.8067 54.6264 30.0993C55.5214 22.9242 57.4652 15.9054 59.9093 10.5592ZM77.8447 10.5768C75.4045 15.9208 73.4639 22.932 72.5699 30.0993C70.4889 46.8067 73.2262 61 77.8365 61M77.8447 10.5768C80.4728 4.8215 83.6805 1 86.7849 1C89.8862 1 93.0905 4.81373 95.7171 10.5592C98.1612 15.9054 100.105 23.8249 101 31" stroke="currentColor" stroke-miterlimit="10" stroke-linecap="round" stroke-linejoin="round"/>
    </symbol>
    <!-- Иконка спирали для изменения размера 1 -->
    <!-- Иконка спирали для изменения размера 2 -->
    <symbol id="mapSpiral2" viewBox="0 0 102 62">
        <path d="M1 31C1 31 2.59574 16.2905 7.97769 16.8182C9.20895 16.939 10.1244 17.9488 10.7669 19.4572M101 1.06803C93.7472 0.356901 87.9608 5.2906 83.7341 12.5977M44.9422 15.7538C50.7198 25.7389 49.4373 47.906 43.179 47.2921C37.6078 46.7456 38.4599 26.9645 44.9422 15.7538ZM44.9422 15.7538C49.0159 8.7086 58.3457 4.6152 62.1557 14.4817M44.9422 15.7538C40.8253 8.63854 34.2036 10.8887 30.8816 16.9819M30.8816 16.9819C26.0296 25.8814 24.6984 41.6067 28.3946 41.9692C32.4665 42.3685 33.997 25.0527 30.8816 16.9819ZM30.8816 16.9819C28.3963 10.5431 22.752 13.5607 20.309 18.5812M83.7341 12.5977C73.7858 29.7961 72.4782 60.1425 81.0281 60.9808C90.6326 61.9226 92.6007 27.916 83.7341 12.5977ZM83.7341 12.5977C77.6393 2.06816 67.4274 4.81596 62.1557 14.4817M62.1557 14.4817C66.9368 26.8632 64.5879 53.4276 58.3389 52.8149C52.6663 52.2588 54.7094 28.1345 62.1557 14.4817ZM20.309 18.5812C16.4251 26.563 15.3858 40.2055 19.193 40.579C23.5603 41.0074 24.4254 25.4019 20.309 18.5812ZM20.309 18.5812C17.7542 14.3479 13.0527 15.366 10.7669 19.4572M10.7669 19.4572C7.34245 25.5864 6.38517 36.6429 8.96346 36.8957C11.8152 37.1754 13.1187 24.9776 10.7669 19.4572Z" stroke="currentColor" stroke-miterlimit="10" stroke-linecap="round" stroke-linejoin="round"/>
    </symbol>
    <!-- Иконка спирали для изменения размера 2 -->
    <!-- Иконка вектора для изменения размера 0 -->
    <symbol id="mapVector0" viewBox="0 0 122 10">
        <path d="M1 5H121M121 5L117 9M121 5L117 1" stroke="currentColor" stroke-miterlimit="10" stroke-linecap="round" stroke-linejoin="round"/>
    </symbol>
    <!-- Иконка вектора для изменения размера 0 -->
    <!-- Иконка вектора для изменения размера 1 -->
    <symbol id="mapVector1" viewBox="0 0 124 16">
        <path d="M2 8H122M122 8L116 14M122 8L116 2" stroke="currentColor" stroke-width="3" stroke-miterlimit="10" stroke-linecap="round" stroke-linejoin="round"/>
    </symbol>
    <!-- Иконка вектора для изменения размера 1 -->
    <!-- Иконка вектора для изменения размера 2 -->
    <symbol id="mapVector2" viewBox="0 0 126 22">
        <path d="M3 11H123M123 11L115 19M123 11L115 3" stroke="currentColor" stroke-width="5" stroke-miterlimit="10" stroke-linecap="round" stroke-linejoin="round"/>
    </symbol>
    <!-- Иконка вектора для изменения размера 2 -->
    <!-- Иконка вектора для изменения размера 3 -->
    <symbol id="mapVector3" viewBox="0 0 128 28">
        <path d="M4 14H124M124 14L114 24M124 14L114 4" stroke="currentColor" stroke-width="7" stroke-miterlimit="10" stroke-linecap="round" stroke-linejoin="round"/>
    </symbol>
    <!-- Иконка вектора для изменения размера 3 -->
    <!-- Иконка для профиля: изменение email -->
    <symbol id="accountEmailModal" viewBox="0 0 26 17">
        <path d="M16.0393 12.5556C21.7603 12.0834 17.6233 0.548043 12.9801 1.01373C8.67299 1.44571 6.29489 11.1856 9.56848 11.5518C12.8421 11.918 10.2775 1.33637 5.93289 1.01337C0.606957 0.617427 -1.00074 11.5774 4.0917 14.5452C10.0663 18.0271 21.5153 14.5452 25 11.5518" stroke="currentColor" stroke-width="2" stroke-miterlimit="10" stroke-linecap="round" stroke-linejoin="round"/>
    </symbol>
    <!-- Иконка для профиля: изменение email -->
    <!-- Иконка для профиля: изменение телефона -->
    <symbol id="accountPhoneModal" viewBox="0 0 19 21" fill="none" xmlns="http://www.w3.org/2000/svg">
        <path d="M12.8268 10.3973C13.1607 6.4271 14.7491 0.734755 16.3072 1.00959C17.9205 1.29414 17.5945 9.55335 14.6099 15.1115C11.6253 20.6696 10.0393 20.183 8.71455 18.3894C7.2762 16.4336 6.49028 10.9817 8.03281 5.50536C9.55722 0.0861368 10.8798 1.70697 11.0353 2.81169M2.74543 8.925C2.99026 6.83083 3.88477 3.11035 4.72678 3.25888C5.5688 3.4074 5.44893 6.91978 4.34377 10.4997C3.25819 14.0141 2.11425 14.2001 1.62509 13.4028C1.16009 12.6529 0.823808 10.7967 1.09968 8.06159" stroke="currentColor" stroke-width="2" stroke-miterlimit="10" stroke-linecap="round" stroke-linejoin="round"/>
    </symbol>
    <!-- Иконка для профиля: изменение телефона -->
</svg>