<svg width="800" height="800" viewBox="0 0 800 800" fill="none" xmlns="http://www.w3.org/2000/svg">
<g clip-path="url(#clip0_1647_5)">
<rect width="800" height="800" rx="150" fill="white"/>
<path d="M625.146 315.592L637.537 286.759L601.894 295.969C586.769 284.331 570.344 273.626 552.93 263.931L546.084 205.624L508.755 242.306C490.468 234.476 471.541 227.657 452.304 221.925L443.597 147.804L384.064 206.304C367.755 203.681 351.524 201.894 335.545 200.942L302.598 118L251.655 204.459C131.58 223.538 55.0201 306.966 137.359 477.493C374.814 540.307 595.398 304.226 614.81 638.015C735.35 507.394 709.714 394.162 625.146 315.592ZM354.258 479.824C306.864 488.859 255.514 496.825 202.38 493.405C256.503 632.983 454.438 773.531 519.595 604.927C393.353 647.224 404.833 538.325 354.258 479.824Z" fill="#EC7A7A"/>
</g>
<defs>
<clipPath id="clip0_1647_5">
<rect width="800" height="800" fill="white"/>
</clipPath>
</defs>
</svg>
